<?xml version="1.0" standalone="no"?>
<!DOCTYPE svg PUBLIC "-//W3C//DTD SVG 20010904//EN"
 "http://www.w3.org/TR/2001/REC-SVG-20010904/DTD/svg10.dtd">
<svg version="1.0" xmlns="http://www.w3.org/2000/svg"
 width="1400.000000pt" height="980.000000pt" viewBox="0 0 1400.000000 980.000000"
 preserveAspectRatio="xMidYMid meet">

<g transform="translate(0.000000,980.000000) scale(0.100000,-0.100000)"
fill="#000000" stroke="none">
<path d="M7235 9440 c-27 -16 -77 -43 -110 -60 -33 -18 -78 -43 -100 -56 -22
-13 -49 -28 -60 -34 -11 -6 -38 -22 -60 -35 -22 -14 -46 -27 -52 -30 -31 -12
-40 -17 -78 -40 -22 -14 -49 -29 -60 -35 -11 -6 -38 -21 -60 -34 -22 -13 -65
-37 -95 -52 -30 -16 -57 -32 -60 -35 -3 -4 -33 -22 -68 -40 -34 -19 -79 -44
-100 -56 -20 -12 -44 -25 -52 -28 -8 -4 -22 -11 -30 -16 -8 -5 -26 -14 -40
-20 -13 -5 -27 -14 -30 -18 -3 -4 -30 -20 -60 -35 -30 -16 -60 -32 -66 -37 -6
-5 -33 -21 -60 -36 -27 -14 -67 -37 -89 -50 -22 -12 -52 -28 -67 -34 -16 -6
-28 -14 -28 -18 0 -5 -17 -15 -37 -24 -21 -9 -45 -21 -53 -26 -8 -5 -22 -12
-30 -15 -8 -4 -33 -17 -55 -31 -22 -13 -49 -29 -60 -35 -11 -6 -38 -21 -60
-35 -22 -13 -65 -36 -95 -51 -30 -15 -57 -31 -60 -35 -3 -4 -17 -13 -30 -19
-14 -6 -43 -21 -65 -34 -22 -13 -56 -32 -75 -43 -19 -11 -60 -33 -90 -50 -30
-17 -82 -45 -115 -63 -33 -18 -67 -38 -75 -45 -8 -7 -40 -24 -70 -38 -71 -33
-101 -62 -96 -90 3 -12 8 -49 11 -82 3 -33 12 -103 20 -155 8 -52 19 -129 24
-170 5 -41 14 -98 20 -126 5 -29 10 -78 12 -110 1 -33 6 -66 10 -75 5 -9 13
-68 19 -130 6 -63 15 -128 21 -145 5 -18 14 -74 19 -125 5 -52 14 -114 19
-139 6 -25 10 -65 11 -90 0 -25 9 -87 20 -139 11 -52 20 -115 20 -140 0 -25 5
-62 10 -81 6 -19 15 -86 21 -148 5 -62 14 -125 20 -139 5 -15 14 -72 19 -127
6 -55 14 -114 20 -131 5 -16 14 -68 20 -115 15 -134 30 -250 41 -315 6 -33 15
-94 20 -135 5 -41 16 -115 24 -165 8 -49 17 -125 20 -168 3 -43 10 -89 15
-103 6 -14 10 -51 10 -82 1 -31 5 -77 11 -102 5 -25 16 -92 23 -150 8 -58 19
-139 25 -180 12 -84 26 -179 41 -290 6 -41 17 -118 25 -170 8 -52 19 -129 24
-170 26 -201 33 -249 42 -300 6 -30 14 -91 19 -135 10 -85 33 -256 51 -365 6
-36 16 -110 24 -165 25 -198 37 -281 47 -335 5 -30 13 -91 18 -135 5 -44 16
-123 24 -175 8 -52 18 -124 21 -158 3 -35 10 -74 15 -87 5 -12 13 -73 19 -134
13 -137 21 -155 64 -146 40 8 149 43 267 85 19 7 55 17 80 24 25 6 55 17 67
24 12 6 31 12 43 12 11 0 33 6 48 14 15 8 46 17 67 21 22 4 50 13 62 21 12 8
31 14 42 14 11 0 40 9 66 20 26 11 55 20 65 20 11 0 34 6 52 14 18 8 87 31
153 51 66 20 143 46 170 56 28 10 60 19 72 19 12 0 24 4 27 9 3 5 30 15 58 21
29 7 65 19 80 26 15 8 38 14 52 14 57 0 55 -30 66 911 11 909 27 2039 38 2594
3 182 7 758 9 1280 1 523 4 986 8 1030 10 145 25 1104 23 1410 -3 339 1 324
-83 275z"/>
<path d="M9312 7060 c-12 -16 -22 -35 -22 -43 0 -7 -5 -18 -12 -25 -12 -12
-35 -69 -45 -109 -3 -12 4 -41 15 -65 26 -55 49 -127 67 -203 7 -33 23 -96 35
-140 12 -44 25 -105 29 -136 5 -30 14 -65 20 -77 6 -11 14 -49 18 -84 3 -35
12 -80 20 -102 7 -21 13 -54 13 -73 0 -19 9 -85 19 -147 40 -226 63 -561 61
-888 -1 -266 -11 -456 -34 -676 -18 -163 -15 -185 26 -197 13 -4 46 -17 73
-30 142 -65 186 -85 192 -85 4 0 38 -15 77 -34 153 -73 224 -104 247 -108 21
-3 24 1 27 42 2 25 10 79 18 120 8 41 18 102 23 135 4 34 13 70 18 80 6 11 14
45 17 75 4 30 13 75 21 100 14 47 26 97 50 212 8 37 19 75 24 85 5 10 21 65
35 122 14 57 30 109 35 115 5 6 11 32 15 57 4 26 13 55 21 65 8 11 15 30 15
44 0 14 6 34 14 45 7 11 17 39 20 62 4 22 14 49 21 60 8 10 15 29 15 43 0 14
6 35 14 46 8 11 19 39 25 62 7 23 16 42 21 42 6 0 10 12 10 28 0 15 6 36 13
47 7 11 19 39 26 63 6 23 16 42 21 42 6 0 10 10 10 23 0 12 6 31 14 42 7 11
19 37 25 58 7 20 17 37 22 37 5 0 9 6 9 13 0 13 40 114 55 137 21 33 55 106
55 117 0 7 -12 20 -27 30 -16 9 -35 23 -43 30 -8 7 -46 34 -85 59 -77 52 -135
92 -345 239 -27 19 -52 35 -56 35 -3 0 -24 15 -47 33 -23 19 -60 44 -82 57
-21 14 -47 32 -57 42 -10 10 -22 18 -26 18 -5 0 -18 8 -30 18 -11 9 -30 24
-42 32 -12 8 -33 23 -45 33 -13 9 -26 17 -31 17 -4 0 -26 16 -50 35 -23 19
-46 35 -50 35 -4 0 -25 15 -48 33 -23 19 -62 46 -88 61 -27 15 -48 32 -48 37
0 5 -4 9 -10 9 -9 0 -63 34 -90 58 -8 7 -48 33 -87 59 -40 25 -73 50 -73 55 0
18 -28 6 -48 -22z"/>
<path d="M9201 6794 c0 -11 3 -14 6 -6 3 7 2 16 -1 19 -3 4 -6 -2 -5 -13z"/>
<path d="M8951 6014 c0 -11 3 -14 6 -6 3 7 2 16 -1 19 -3 4 -6 -2 -5 -13z"/>
<path d="M8882 5700 c0 -14 2 -19 5 -12 2 6 2 18 0 25 -3 6 -5 1 -5 -13z"/>
<path d="M4685 5601 c-6 -5 -53 -32 -105 -59 -52 -27 -115 -61 -140 -75 -25
-14 -68 -37 -96 -51 -28 -14 -90 -48 -138 -76 -48 -27 -92 -50 -97 -50 -5 0
-22 -8 -37 -18 -38 -25 -58 -37 -127 -72 -33 -17 -80 -43 -105 -57 -25 -14
-81 -44 -125 -68 -148 -78 -146 -77 -140 -105 7 -26 14 -43 59 -142 14 -31 26
-61 26 -67 0 -5 6 -22 14 -38 32 -67 47 -100 55 -128 5 -16 23 -68 40 -114 17
-46 28 -88 25 -92 -2 -4 -28 -22 -57 -39 -28 -17 -59 -35 -67 -40 -8 -5 -60
-34 -115 -65 -55 -30 -107 -60 -115 -65 -8 -5 -28 -16 -45 -25 -16 -8 -37 -19
-45 -24 -8 -5 -22 -12 -30 -16 -8 -3 -33 -17 -55 -30 -22 -14 -49 -29 -60 -35
-11 -6 -37 -20 -57 -33 -21 -12 -66 -37 -100 -56 -92 -49 -94 -52 -74 -98 9
-21 23 -51 31 -66 8 -16 15 -37 15 -47 0 -9 7 -23 15 -30 8 -7 17 -27 21 -46
3 -18 12 -38 20 -45 8 -6 14 -18 14 -25 0 -7 10 -35 22 -61 22 -50 32 -73 68
-163 13 -30 28 -68 35 -85 7 -16 23 -55 35 -85 12 -30 29 -67 36 -82 8 -14 14
-32 14 -38 0 -7 9 -31 19 -54 11 -23 29 -68 41 -101 13 -33 29 -72 36 -87 8
-14 14 -33 14 -42 0 -9 9 -33 20 -53 11 -21 20 -45 20 -53 0 -8 7 -24 15 -34
8 -11 15 -27 15 -35 0 -17 33 -109 56 -154 8 -16 14 -36 14 -45 0 -16 33 -109
52 -146 5 -10 16 -39 23 -65 17 -59 35 -110 50 -141 7 -14 16 -43 21 -65 4
-22 13 -49 20 -60 8 -11 14 -28 14 -38 0 -19 34 -130 57 -184 7 -17 13 -43 13
-58 0 -14 6 -38 14 -53 7 -15 17 -47 21 -72 4 -25 13 -56 20 -70 7 -14 15 -48
19 -77 4 -28 13 -68 21 -87 8 -19 15 -52 15 -71 0 -20 5 -45 10 -55 6 -11 15
-54 20 -97 15 -120 30 -163 57 -163 12 0 24 4 27 9 3 5 23 11 43 14 21 2 52 9
68 15 17 6 64 20 105 32 41 13 93 28 115 35 22 6 72 21 110 33 39 12 104 31
145 42 41 12 91 28 110 35 19 7 55 18 80 24 49 13 118 33 165 49 17 6 64 20
105 32 41 12 89 26 105 32 17 5 46 14 65 18 19 5 58 16 85 25 28 9 73 23 100
32 70 22 74 27 64 71 -5 20 -9 62 -9 92 0 30 -6 116 -15 190 -16 152 -32 292
-46 425 -5 50 -14 124 -19 165 -5 41 -12 95 -15 120 -10 86 -45 366 -56 440
-19 135 -37 273 -49 365 -6 50 -18 122 -25 160 -8 39 -17 95 -20 125 -3 30
-12 89 -20 130 -26 141 -37 205 -45 270 -5 36 -15 97 -23 135 -20 90 -33 159
-52 263 -8 46 -19 98 -24 115 -9 32 -18 73 -46 216 -8 40 -19 79 -24 85 -6 7
-13 32 -16 56 -4 25 -12 61 -20 80 -7 19 -15 56 -19 83 -4 26 -14 59 -22 75
-7 15 -14 36 -14 47 0 12 -9 46 -20 78 -11 31 -20 63 -20 71 0 8 -6 27 -14 43
-8 15 -24 62 -36 103 -25 80 -33 102 -74 193 -26 55 -41 67 -61 48z"/>
<path d="M8812 5330 c0 -19 2 -27 5 -17 2 9 2 25 0 35 -3 9 -5 1 -5 -18z"/>
<path d="M8771 5124 c0 -11 3 -14 6 -6 3 7 2 16 -1 19 -3 4 -6 -2 -5 -13z"/>
<path d="M8742 4860 c0 -14 2 -19 5 -12 2 6 2 18 0 25 -3 6 -5 1 -5 -13z"/>
<path d="M8702 4655 c0 -16 2 -22 5 -12 2 9 2 23 0 30 -3 6 -5 -1 -5 -18z"/>
<path d="M8672 4395 c0 -16 2 -22 5 -12 2 9 2 23 0 30 -3 6 -5 -1 -5 -18z"/>
<path d="M8632 4140 c0 -14 2 -19 5 -12 2 6 2 18 0 25 -3 6 -5 1 -5 -13z"/>
<path d="M8563 3540 c0 -30 2 -43 4 -27 2 15 2 39 0 55 -2 15 -4 2 -4 -28z"/>
<path d="M10790 3389 c0 -5 5 -7 10 -4 6 3 10 8 10 11 0 2 -4 4 -10 4 -5 0
-10 -5 -10 -11z"/>
<path d="M10765 3310 c-3 -5 -1 -10 4 -10 6 0 11 5 11 10 0 6 -2 10 -4 10 -3
0 -8 -4 -11 -10z"/>
<path d="M10650 3060 c0 -5 5 -10 10 -10 6 0 10 5 10 10 0 6 -4 10 -10 10 -5
0 -10 -4 -10 -10z"/>
<path d="M8492 2940 c0 -19 2 -27 5 -17 2 9 2 25 0 35 -3 9 -5 1 -5 -18z"/>
<path d="M8423 2275 c0 -22 2 -30 4 -17 2 12 2 30 0 40 -3 9 -5 -1 -4 -23z"/>
<path d="M10330 2280 c0 -5 5 -10 10 -10 6 0 10 5 10 10 0 6 -4 10 -10 10 -5
0 -10 -4 -10 -10z"/>
<path d="M8381 1914 c0 -11 3 -14 6 -6 3 7 2 16 -1 19 -3 4 -6 -2 -5 -13z"/>
<path d="M7218 1793 c7 -3 16 -2 19 1 4 3 -2 6 -13 5 -11 0 -14 -3 -6 -6z"/>
<path d="M6988 1723 c6 -2 18 -2 25 0 6 3 1 5 -13 5 -14 0 -19 -2 -12 -5z"/>
<path d="M7538 1723 c7 -3 16 -2 19 1 4 3 -2 6 -13 5 -11 0 -14 -3 -6 -6z"/>
<path d="M8408 1713 c6 -2 18 -2 25 0 6 3 1 5 -13 5 -14 0 -19 -2 -12 -5z"/>
<path d="M8628 1643 c7 -3 16 -2 19 1 4 3 -2 6 -13 5 -11 0 -14 -3 -6 -6z"/>
<path d="M7998 1583 c7 -3 16 -2 19 1 4 3 -2 6 -13 5 -11 0 -14 -3 -6 -6z"/>
<path d="M8823 1573 c9 -2 23 -2 30 0 6 3 -1 5 -18 5 -16 0 -22 -2 -12 -5z"/>
<path d="M6428 1543 c7 -3 16 -2 19 1 4 3 -2 6 -13 5 -11 0 -14 -3 -6 -6z"/>
<path d="M7118 1503 c7 -3 16 -2 19 1 4 3 -2 6 -13 5 -11 0 -14 -3 -6 -6z"/>
<path d="M7378 1503 c7 -3 16 -2 19 1 4 3 -2 6 -13 5 -11 0 -14 -3 -6 -6z"/>
<path d="M9028 1503 c6 -2 18 -2 25 0 6 3 1 5 -13 5 -14 0 -19 -2 -12 -5z"/>
<path d="M6208 1473 c6 -2 18 -2 25 0 6 3 1 5 -13 5 -14 0 -19 -2 -12 -5z"/>
<path d="M8348 1473 c6 -2 18 -2 25 0 6 3 1 5 -13 5 -14 0 -19 -2 -12 -5z"/>
<path d="M8608 1403 c7 -3 16 -2 19 1 4 3 -2 6 -13 5 -11 0 -14 -3 -6 -6z"/>
<path d="M6768 1393 c7 -3 16 -2 19 1 4 3 -2 6 -13 5 -11 0 -14 -3 -6 -6z"/>
<path d="M7698 1393 c6 -2 18 -2 25 0 6 3 1 5 -13 5 -14 0 -19 -2 -12 -5z"/>
<path d="M8838 1333 c7 -3 16 -2 19 1 4 3 -2 6 -13 5 -11 0 -14 -3 -6 -6z"/>
<path d="M6548 1323 c6 -2 18 -2 25 0 6 3 1 5 -13 5 -14 0 -19 -2 -12 -5z"/>
<path d="M7908 1323 c7 -3 16 -2 19 1 4 3 -2 6 -13 5 -11 0 -14 -3 -6 -6z"/>
<path d="M9548 1323 c7 -3 16 -2 19 1 4 3 -2 6 -13 5 -11 0 -14 -3 -6 -6z"/>
<path d="M5548 1263 c7 -3 16 -2 19 1 4 3 -2 6 -13 5 -11 0 -14 -3 -6 -6z"/>
<path d="M8128 1253 c6 -2 18 -2 25 0 6 3 1 5 -13 5 -14 0 -19 -2 -12 -5z"/>
<path d="M9188 1223 c7 -3 16 -2 19 1 4 3 -2 6 -13 5 -11 0 -14 -3 -6 -6z"/>
<path d="M5328 1193 c7 -3 16 -2 19 1 4 3 -2 6 -13 5 -11 0 -14 -3 -6 -6z"/>
<path d="M9318 1193 c7 -3 16 -2 19 1 4 3 -2 6 -13 5 -11 0 -14 -3 -6 -6z"/>
<path d="M6088 1183 c6 -2 18 -2 25 0 6 3 1 5 -13 5 -14 0 -19 -2 -12 -5z"/>
<path d="M8338 1183 c6 -2 18 -2 25 0 6 3 1 5 -13 5 -14 0 -19 -2 -12 -5z"/>
<path d="M9968 1183 c7 -3 16 -2 19 1 4 3 -2 6 -13 5 -11 0 -14 -3 -6 -6z"/>
<path d="M5208 1153 c7 -3 16 -2 19 1 4 3 -2 6 -13 5 -11 0 -14 -3 -6 -6z"/>
<path d="M9418 1153 c6 -2 18 -2 25 0 6 3 1 5 -13 5 -14 0 -19 -2 -12 -5z"/>
<path d="M8548 1113 c7 -3 16 -2 19 1 4 3 -2 6 -13 5 -11 0 -14 -3 -6 -6z"/>
<path d="M9658 1083 c6 -2 18 -2 25 0 6 3 1 5 -13 5 -14 0 -19 -2 -12 -5z"/>
<path d="M8658 1073 c7 -3 16 -2 19 1 4 3 -2 6 -13 5 -11 0 -14 -3 -6 -6z"/>
<path d="M4768 1013 c6 -2 18 -2 25 0 6 3 1 5 -13 5 -14 0 -19 -2 -12 -5z"/>
<path d="M5288 933 c7 -3 16 -2 19 1 4 3 -2 6 -13 5 -11 0 -14 -3 -6 -6z"/>
<path d="M5058 863 c7 -3 16 -2 19 1 4 3 -2 6 -13 5 -11 0 -14 -3 -6 -6z"/>
<path d="M9308 863 c7 -3 16 -2 19 1 4 3 -2 6 -13 5 -11 0 -14 -3 -6 -6z"/>
<path d="M4828 793 c7 -3 16 -2 19 1 4 3 -2 6 -13 5 -11 0 -14 -3 -6 -6z"/>
<path d="M4598 723 c7 -3 16 -2 19 1 4 3 -2 6 -13 5 -11 0 -14 -3 -6 -6z"/>
<path d="M9960 660 c0 -5 9 -10 20 -10 11 0 20 5 20 10 0 6 -9 10 -20 10 -11
0 -20 -4 -20 -10z"/>
</g>
</svg>
